<?xml version="1.0" encoding="UTF-8" standalone="no"?>
<!-- Created with Inkscape (http://www.inkscape.org/) -->

<svg
   xmlns:dc="http://purl.org/dc/elements/1.1/"
   xmlns:cc="http://creativecommons.org/ns#"
   xmlns:rdf="http://www.w3.org/1999/02/22-rdf-syntax-ns#"
   xmlns:svg="http://www.w3.org/2000/svg"
   xmlns="http://www.w3.org/2000/svg"
   xmlns:xlink="http://www.w3.org/1999/xlink"
   xmlns:sodipodi="http://sodipodi.sourceforge.net/DTD/sodipodi-0.dtd"
   xmlns:inkscape="http://www.inkscape.org/namespaces/inkscape"
   width="210mm"
   height="297mm"
   viewBox="0 0 744.09448819 1052.3622047"
   id="svg2"
   version="1.1"
   inkscape:version="0.91 r13725"
   sodipodi:docname="hello_python.svg">
  <defs
     id="defs4">
    <linearGradient
       id="c">
      <stop
         id="stop3349"
         stop-opacity=".498"
         stop-color="#b8b8b8"
         offset="0" />
      <stop
         id="stop3351"
         stop-opacity="0"
         stop-color="#7f7f7f"
         offset="1" />
    </linearGradient>
    <linearGradient
       id="a">
      <stop
         id="stop3354"
         stop-color="#ffd43b"
         offset="0" />
      <stop
         id="stop3356"
         stop-color="#ffe873"
         offset="1" />
    </linearGradient>
    <linearGradient
       id="b">
      <stop
         id="stop3359"
         stop-color="#5a9fd4"
         offset="0" />
      <stop
         id="stop3361"
         stop-color="#306998"
         offset="1" />
    </linearGradient>
    <linearGradient
       id="linearGradient3363"
       gradientTransform="matrix(0.562541,0,0,0.567972,-9.399749,304.46299)"
       gradientUnits="userSpaceOnUse"
       xlink:href="#a"
       y2="137.273"
       x2="112.031"
       y1="192.352"
       x1="150.961" />
    <linearGradient
       id="linearGradient3365"
       gradientTransform="matrix(0.562541,0,0,0.567972,-9.399749,304.46299)"
       gradientUnits="userSpaceOnUse"
       xlink:href="#b"
       y2="114.398"
       x2="135.665"
       y1="20.604"
       x1="26.649" />
    <radialGradient
       id="radialGradient3367"
       gradientTransform="matrix(2.382716e-8,-0.296405,1.43676,4.683673e-7,-128.544,150.5202)"
       gradientUnits="userSpaceOnUse"
       xlink:href="#c"
       fy="132.286"
       fx="61.519"
       r="29.037"
       cy="132.286"
       cx="61.519" />
  </defs>
  <sodipodi:namedview
     id="base"
     pagecolor="#ffffff"
     bordercolor="#666666"
     borderopacity="1.0"
     inkscape:pageopacity="0.0"
     inkscape:pageshadow="2"
     inkscape:zoom="0.98994949"
     inkscape:cx="597.96126"
     inkscape:cy="445.50583"
     inkscape:document-units="px"
     inkscape:current-layer="layer1"
     showgrid="false"
     inkscape:window-width="1920"
     inkscape:window-height="1053"
     inkscape:window-x="0"
     inkscape:window-y="27"
     inkscape:window-maximized="1" />
  <metadata
     id="metadata7">
    <rdf:RDF>
      <cc:Work
         rdf:about="">
        <dc:format>image/svg+xml</dc:format>
        <dc:type
           rdf:resource="http://purl.org/dc/dcmitype/StillImage" />
        <dc:title />
      </cc:Work>
    </rdf:RDF>
  </metadata>
  <g
     inkscape:label="Camada 1"
     inkscape:groupmode="layer"
     id="layer1">
    <flowRoot
       xml:space="preserve"
       id="flowRoot3400"
       style="fill:black;stroke:none;stroke-opacity:1;stroke-width:1px;stroke-linejoin:miter;stroke-linecap:butt;fill-opacity:1;font-family:sans-serif;font-style:normal;font-weight:normal;font-size:25px;line-height:125%;letter-spacing:0px;word-spacing:0px"><flowRegion
         id="flowRegion3402"><rect
           id="rect3404"
           width="628.31488"
           height="230.31477"
           x="47.477169"
           y="363.43817" /></flowRegion><flowPara
         id="flowPara3406" /></flowRoot>    <flowRoot
       xml:space="preserve"
       id="flowRoot3408"
       style="fill:black;stroke:none;stroke-opacity:1;stroke-width:1px;stroke-linejoin:miter;stroke-linecap:butt;fill-opacity:1;font-family:sans-serif;font-style:normal;font-weight:normal;font-size:25px;line-height:125%;letter-spacing:0px;word-spacing:0px"><flowRegion
         id="flowRegion3410"><rect
           id="rect3412"
           width="710.13727"
           height="279.81226"
           x="37.375645"
           y="335.1539" /></flowRegion><flowPara
         id="flowPara3414" /></flowRoot>    <g
       id="g4179">
      <g
         inkscape:export-ydpi="90"
         inkscape:export-xdpi="90"
         transform="translate(50.922324,422.77577)"
         id="g3371">
        <path
           inkscape:connector-curvature="0"
           d="m 60.510156,316.16628 c -4.583653,0.0213 -8.960939,0.41221 -12.8125,1.09375 -11.346216,2.0045 -13.406249,6.2001 -13.40625,13.9375 l 0,10.21875 26.8125,0 0,3.40625 -26.8125,0 -10.0625,0 c -7.792459,0 -14.6157592,4.68371 -16.7500002,13.59375 -2.46182,10.21296 -2.5710151,16.58602 0,27.25 1.9059283,7.93785 6.4575432,13.59374 14.2500002,13.59375 l 9.21875,0 0,-12.25 c 0,-8.84991 7.657144,-16.65625 16.75,-16.65625 l 26.78125,0 c 7.454951,0 13.406253,-6.13817 13.40625,-13.625 l 0,-25.53125 c 0,-7.26634 -6.12998,-12.72478 -13.40625,-13.9375 -4.605987,-0.76673 -9.385097,-1.11505 -13.96875,-1.09375 z m -14.5,8.21875 c 2.769547,0 5.03125,2.29864 5.03125,5.125 -2e-6,2.81633 -2.261703,5.09375 -5.03125,5.09375 -2.779476,-10e-6 -5.03125,-2.27742 -5.03125,-5.09375 -1e-6,-2.82636 2.251774,-5.125 5.03125,-5.125 z"
           transform="matrix(1.0677202,0,0,1.0677202,-1.3146305,-333.57614)"
           id="path3373"
           style="fill:url(#linearGradient3365)" />
        <path
           inkscape:connector-curvature="0"
           d="m 91.228906,344.82253 0,11.90625 c 0,9.23075 -7.825895,16.99999 -16.75,17 l -26.78125,0 c -7.335833,0 -13.406249,6.27848 -13.40625,13.625 l 0,25.53124 c 0,7.26634 6.318588,11.54032 13.40625,13.625 8.487331,2.49561 16.626237,2.94663 26.78125,0 6.750155,-1.95439 13.406253,-5.88761 13.40625,-13.625 l 0,-10.21874 -26.78125,0 0,-3.40625 26.78125,0 13.406254,0 c 7.79246,0 10.69625,-5.43541 13.40624,-13.59375 2.79933,-8.39889 2.68022,-16.47578 0,-27.25 -1.92578,-7.75745 -5.60387,-13.59375 -13.40624,-13.59375 l -10.062504,0 z m -15.0625,64.65625 c 2.779478,0 5.03125,2.27741 5.03125,5.09374 -2e-6,2.82635 -2.251775,5.125 -5.03125,5.125 -2.76955,0 -5.03125,-2.29865 -5.03125,-5.125 2e-6,-2.81633 2.261697,-5.09374 5.03125,-5.09374 z"
           transform="matrix(1.0677202,0,0,1.0677202,-1.3146305,-333.57614)"
           id="path3375"
           style="fill:url(#linearGradient3363)" />
      </g>
      <text
         inkscape:export-ydpi="90"
         inkscape:export-xdpi="90"
         sodipodi:linespacing="125%"
         id="text3396"
         y="499.41003"
         x="193.71422"
         style="font-style:normal;font-variant:normal;font-weight:normal;font-stretch:normal;font-size:25px;line-height:125%;font-family:'Arial Black';-inkscape-font-specification:'Arial Black, ';letter-spacing:0px;word-spacing:0px;fill:#ffffff;fill-opacity:1;stroke:#000000;stroke-width:1px;stroke-linecap:butt;stroke-linejoin:miter;stroke-opacity:1"
         xml:space="preserve"><tspan
           style="font-style:normal;font-variant:normal;font-weight:normal;font-stretch:normal;font-size:50px;font-family:'Arial Black';-inkscape-font-specification:'Arial Black, ';fill:#ffffff;fill-opacity:1;stroke:#000000;stroke-opacity:1"
           y="499.41003"
           x="193.71422"
           id="tspan3398"
           sodipodi:role="line">Hello Python</tspan></text>
      <rect
         inkscape:export-ydpi="90"
         inkscape:export-xdpi="90"
         ry="8.06042"
         y="382.22498"
         x="31.31473"
         height="209.10158"
         width="531.34021"
         id="rect3435"
         style="fill:none;fill-opacity:1;stroke:none;stroke-opacity:1" />
    </g>
  </g>
</svg>
